<?xml version="1.0" standalone="no"?>
<!DOCTYPE svg PUBLIC "-//W3C//DTD SVG 20010904//EN"
 "http://www.w3.org/TR/2001/REC-SVG-20010904/DTD/svg10.dtd">
<svg version="1.0" xmlns="http://www.w3.org/2000/svg"
 width="4889.000000pt" height="4889.000000pt" viewBox="0 0 4889.000000 4889.000000"
 preserveAspectRatio="xMidYMid meet">
<metadata>
Created by potrace 1.14, written by Peter Selinger 2001-2017
</metadata>
<g transform="translate(0.000000,4889.000000) scale(0.100000,-0.100000)"
fill="#000000" stroke="none">
<path d="M44690 47773 c-68 -26 -281 -145 -380 -213 -8 -6 -85 -56 -170 -112
-85 -56 -231 -152 -325 -213 -93 -61 -222 -144 -285 -185 -287 -185 -752 -505
-758 -521 -2 -5 -8 -9 -13 -9 -6 0 -54 -31 -107 -69 -139 -98 -480 -322 -527
-346 -22 -11 -42 -22 -45 -25 -12 -12 -74 -43 -133 -65 -99 -37 -261 -29 -382
20 -154 61 -314 139 -350 171 -16 14 -78 72 -136 129 -142 137 -205 169 -334
172 -130 2 -261 -24 -460 -93 -55 -19 -113 -41 -130 -49 -16 -8 -70 -33 -119
-55 -158 -73 -352 -193 -446 -274 -107 -94 -254 -251 -375 -400 -63 -78 -196
-274 -229 -339 -30 -58 -34 -71 -24 -97 11 -33 35 -50 77 -56 41 -5 369 -5
441 1 144 12 275 54 334 108 35 31 119 67 157 67 54 0 208 -54 319 -112 52
-27 97 -53 100 -57 3 -4 21 -18 40 -31 108 -76 136 -146 100 -256 -49 -147
-228 -369 -318 -394 -21 -5 -89 -12 -152 -14 -100 -4 -127 -10 -205 -39 -253
-96 -378 -190 -445 -333 -18 -38 -65 -163 -105 -279 -80 -230 -125 -348 -152
-398 -9 -17 -17 -34 -18 -37 0 -3 -5 -12 -10 -20 -14 -21 -27 -43 -53 -92 -21
-37 -141 -191 -213 -273 -14 -16 -66 -75 -114 -130 -49 -55 -93 -105 -99 -111
-6 -6 -33 -36 -61 -68 -27 -31 -72 -81 -100 -110 -27 -29 -95 -102 -150 -161
-166 -180 -341 -366 -440 -470 -33 -34 -133 -139 -223 -233 -183 -191 -679
-690 -793 -797 -202 -190 -209 -193 -459 -198 -167 -3 -177 -4 -226 -30 -66
-34 -114 -90 -159 -186 -20 -42 -40 -84 -46 -93 -5 -10 -9 -23 -9 -30 0 -7 -6
-24 -13 -38 -7 -14 -26 -61 -41 -105 -16 -44 -33 -84 -37 -89 -5 -6 -9 -16 -9
-23 0 -23 -107 -237 -158 -314 -50 -77 -141 -175 -209 -226 -21 -15 -44 -34
-52 -42 -18 -16 -329 -221 -336 -221 -3 0 -18 -8 -33 -19 -15 -10 -67 -45
-117 -77 -174 -112 -318 -229 -385 -311 -42 -50 -84 -141 -107 -230 -7 -28 -8
-195 -3 -453 2 -81 -2 -153 -9 -180 -17 -66 -54 -160 -63 -160 -5 0 -8 -4 -8
-10 0 -9 -14 -29 -45 -64 -6 -6 -33 -38 -60 -70 -150 -179 -636 -661 -1555
-1546 -37 -36 -168 -162 -290 -280 -123 -118 -250 -241 -284 -274 -568 -545
-1539 -1517 -1776 -1776 -58 -63 -244 -263 -267 -286 -13 -13 -23 -25 -23 -28
0 -2 -21 -26 -47 -53 -47 -48 -172 -186 -243 -266 -19 -22 -46 -53 -60 -68
-35 -38 -75 -82 -155 -174 -120 -136 -130 -148 -186 -211 -30 -33 -67 -76 -83
-95 -37 -43 -159 -182 -166 -189 -3 -3 -48 -54 -100 -115 -52 -60 -99 -115
-105 -121 -5 -6 -35 -39 -65 -74 -30 -35 -91 -104 -136 -154 -75 -85 -105
-119 -151 -172 -28 -33 -135 -154 -158 -178 -11 -12 -56 -62 -100 -111 -44
-48 -93 -103 -110 -121 -16 -17 -75 -81 -130 -140 -199 -216 -577 -587 -715
-703 -14 -12 -34 -29 -45 -39 -11 -10 -56 -47 -100 -82 -44 -36 -81 -68 -83
-72 -2 -5 -9 -8 -16 -8 -7 0 -21 -9 -33 -19 -57 -53 -297 -195 -473 -279 -282
-136 -519 -225 -990 -372 -473 -148 -621 -197 -707 -236 -17 -8 -36 -14 -42
-14 -7 0 -23 -7 -36 -16 -13 -9 -30 -17 -37 -18 -27 -5 -166 -80 -235 -128
-60 -42 -153 -130 -188 -180 -72 -102 -124 -232 -150 -372 -20 -112 -25 -173
-30 -386 -5 -191 -13 -334 -21 -382 -19 -120 -31 -171 -56 -243 -35 -100 -75
-179 -130 -251 -56 -76 -277 -335 -373 -438 -6 -6 -53 -58 -105 -116 -52 -58
-106 -117 -120 -131 -14 -15 -56 -61 -95 -103 -38 -42 -98 -107 -133 -144 -35
-37 -91 -97 -125 -133 -63 -67 -327 -346 -425 -448 -30 -31 -111 -117 -182
-191 -71 -74 -175 -183 -232 -241 -57 -59 -193 -200 -303 -314 -607 -628
-1205 -1234 -2120 -2149 -922 -922 -1364 -1357 -1826 -1797 -299 -285 -384
-362 -594 -545 -39 -34 -119 -71 -170 -79 -45 -6 -200 -8 -230 -1 -11 2 -40 7
-65 10 -25 3 -83 13 -130 21 -127 23 -261 29 -317 16 -30 -7 -63 -25 -84 -44
-86 -80 -95 -189 -35 -442 27 -115 38 -181 39 -242 2 -85 -14 -115 -84 -149
-151 -76 -457 -65 -547 19 -57 53 -81 144 -77 290 9 289 106 490 326 673 61
50 174 89 295 100 38 4 71 8 73 10 1 1 14 -1 27 -6 14 -6 36 -12 50 -14 14 -3
62 -17 106 -31 102 -33 181 -42 217 -24 34 18 61 48 62 71 5 67 3 91 -13 158
-26 105 -25 103 -38 146 -24 82 -59 220 -64 254 -3 19 -8 46 -11 60 -7 27 -7
353 0 410 2 19 6 78 10 130 3 52 8 106 10 120 2 14 7 58 10 99 4 41 8 86 10
100 2 23 13 132 20 201 13 136 41 366 50 410 4 22 15 82 29 162 2 13 23 115
46 228 52 252 41 201 84 430 20 107 38 206 41 220 3 14 7 41 9 60 2 19 7 71
12 115 12 114 8 237 -10 278 -20 49 -56 71 -106 64 -60 -8 -134 -71 -248 -212
-4 -5 -31 -41 -59 -80 -29 -38 -60 -81 -71 -95 -19 -25 -178 -257 -197 -288
-18 -29 -131 -196 -186 -275 -30 -43 -58 -85 -64 -94 -5 -9 -15 -24 -22 -32
-11 -14 -35 -46 -140 -190 -10 -13 -22 -29 -28 -35 -5 -6 -23 -29 -40 -51 -16
-22 -34 -45 -40 -51 -5 -6 -28 -33 -50 -60 -77 -93 -208 -243 -354 -403 -13
-14 -44 -50 -70 -80 -25 -29 -55 -63 -66 -76 -11 -12 -36 -39 -55 -61 -68 -75
-207 -250 -262 -329 -111 -160 -177 -310 -192 -435 -8 -65 -9 -245 -1 -280 3
-14 8 -95 10 -181 4 -135 2 -165 -16 -229 -50 -180 -216 -347 -474 -477 -55
-27 -125 -58 -155 -68 -30 -10 -59 -20 -65 -24 -5 -3 -14 -6 -20 -7 -5 -1 -50
-14 -99 -28 -48 -14 -98 -28 -110 -30 -11 -3 -54 -12 -94 -20 -41 -9 -97 -19
-125 -23 -102 -12 -339 -6 -477 12 -19 2 -57 7 -85 11 -113 15 -280 43 -325
54 -19 5 -53 11 -75 14 -22 3 -51 8 -65 11 -51 12 -126 26 -160 31 -19 2 -46
7 -60 10 -38 9 -55 12 -205 34 -77 12 -205 33 -285 46 -306 53 -345 60 -358
67 -4 3 -24 8 -44 11 -173 27 -388 107 -559 206 -41 24 -75 42 -75 39 -1 -2
-10 3 -20 12 -34 30 -208 117 -246 123 -30 5 -43 1 -64 -17 -31 -27 -34 -60
-10 -107 9 -18 16 -37 16 -41 0 -5 24 -48 53 -96 29 -48 60 -99 68 -113 7 -14
17 -27 20 -30 3 -3 43 -61 89 -130 47 -69 90 -131 96 -137 7 -7 22 -29 35 -50
13 -21 28 -43 34 -50 5 -6 35 -48 65 -94 30 -45 110 -139 177 -208 153 -157
173 -184 173 -232 0 -50 -41 -87 -195 -176 -215 -125 -754 -324 -991 -367 -13
-3 -32 -7 -42 -10 -21 -6 -62 -14 -122 -22 -25 -3 -48 -8 -51 -9 -6 -4 -234
-35 -299 -40 -25 -2 -63 -6 -85 -9 -22 -3 -76 -8 -120 -11 -44 -3 -100 -8
-125 -10 -223 -20 -938 -32 -1155 -20 -33 1 -121 6 -195 10 -74 3 -155 8 -180
10 -25 2 -79 6 -120 9 -41 4 -104 8 -139 11 -72 5 -150 12 -231 21 -89 10
-102 11 -175 18 -38 4 -81 9 -95 11 -14 2 -52 6 -85 10 -33 3 -71 8 -85 10
-14 2 -47 7 -75 10 -27 3 -61 7 -75 10 -14 2 -43 7 -65 10 -68 10 -154 34
-335 95 -96 32 -190 61 -209 64 -69 10 -105 -36 -71 -91 27 -43 131 -144 280
-273 41 -36 77 -67 80 -70 4 -5 88 -75 160 -136 94 -80 282 -233 328 -269 7
-5 21 -17 30 -25 25 -22 229 -160 237 -160 4 0 32 -16 63 -37 197 -127 246
-165 256 -200 4 -12 19 -26 35 -31 31 -11 92 -80 175 -197 30 -44 60 -85 66
-92 5 -7 10 -15 10 -18 0 -4 13 -25 28 -48 16 -23 72 -114 125 -203 54 -88
112 -177 130 -197 31 -35 100 -87 115 -87 4 0 24 -14 45 -31 46 -38 46 -55 6
-156 -67 -171 -223 -424 -320 -522 -51 -50 -99 -91 -108 -91 -5 0 -11 -4 -13
-8 -11 -29 -184 -119 -279 -146 -93 -27 -99 -28 -229 -32 -108 -3 -136 0 -205
19 -104 30 -217 79 -445 193 -102 51 -205 99 -230 107 -84 28 -385 89 -450 91
-44 1 -61 -28 -49 -82 4 -20 10 -48 12 -62 5 -26 61 -259 77 -320 13 -49 50
-210 56 -240 3 -14 11 -52 20 -85 24 -101 70 -343 89 -470 3 -22 7 -47 10 -55
5 -18 12 -57 22 -125 10 -65 10 -347 0 -405 -19 -115 -49 -254 -78 -354 -11
-39 -22 -82 -25 -95 -3 -14 -7 -28 -10 -33 -3 -4 -7 -16 -9 -25 -10 -54 -133
-388 -190 -518 -134 -305 -258 -492 -564 -850 -57 -66 -112 -131 -124 -145
-71 -84 -191 -253 -233 -327 -98 -175 -194 -405 -263 -633 -18 -58 -37 -119
-42 -137 -6 -17 -12 -44 -15 -59 -3 -15 -7 -31 -9 -34 -6 -9 -72 -305 -79
-353 -3 -20 -9 -54 -12 -75 -47 -291 -4 -716 123 -1212 33 -128 39 -151 63
-235 6 -19 14 -50 19 -67 33 -120 130 -381 159 -425 15 -24 82 -47 110 -39 9
3 32 8 50 11 17 3 44 7 60 10 15 2 52 7 82 10 30 3 66 7 80 10 14 2 45 7 70
10 25 3 81 12 125 20 103 19 240 24 313 13 97 -15 159 -56 248 -163 106 -129
245 -364 314 -530 35 -83 33 -136 -6 -251 -64 -184 -67 -199 -79 -414 -4 -74
-11 -163 -20 -250 -9 -93 -42 -234 -73 -317 -23 -61 -84 -196 -92 -203 -3 -3
-14 -23 -26 -45 -33 -65 -69 -130 -74 -135 -3 -3 -14 -18 -24 -35 -26 -42 -97
-135 -122 -161 -11 -12 -29 -32 -40 -46 -37 -46 -154 -129 -211 -150 -52 -18
-72 -20 -193 -14 -234 12 -254 12 -305 3 -27 -5 -56 -13 -62 -19 -7 -6 -13 -8
-13 -4 0 14 -88 -50 -135 -98 -129 -131 -206 -300 -296 -646 -6 -25 -13 -56
-16 -70 -2 -14 -8 -41 -13 -60 -5 -19 -12 -51 -15 -70 -3 -19 -8 -42 -10 -50
-19 -67 -26 -295 -12 -384 27 -167 139 -376 278 -516 86 -86 216 -190 237
-190 7 0 12 -4 12 -8 0 -16 187 -102 263 -121 71 -17 201 -16 312 4 16 3 70
16 250 59 11 3 98 16 129 20 38 5 164 -44 174 -66 2 -5 10 -8 17 -8 22 0 140
-124 163 -172 32 -65 29 -92 -15 -134 -33 -31 -113 -88 -165 -119 -191 -112
-349 -218 -387 -260 -35 -38 -44 -77 -29 -111 23 -50 85 -60 346 -58 288 2
385 -20 512 -115 28 -21 119 -105 203 -187 242 -237 360 -303 712 -399 102
-28 358 -88 420 -99 17 -3 76 -15 132 -26 57 -11 125 -22 153 -25 28 -2 54 -6
58 -9 13 -8 156 -20 247 -20 96 -1 138 5 225 30 63 18 65 19 185 73 50 22 124
53 166 70 41 16 120 50 175 76 131 62 171 75 235 76 102 1 179 -24 209 -68 26
-38 24 -68 -12 -188 -11 -38 -21 -74 -22 -80 -3 -11 -53 -122 -66 -145 -53
-91 -108 -228 -113 -279 -3 -36 0 -45 22 -62 34 -27 71 -19 130 26 67 51 102
79 115 90 6 6 38 30 71 55 33 25 61 48 63 53 2 4 8 7 14 7 5 0 23 10 40 21 49
36 149 80 187 84 20 2 38 5 41 6 15 5 41 3 95 -8 96 -19 115 -25 115 -34 0 -5
6 -9 14 -9 8 0 83 -36 168 -79 84 -43 180 -88 213 -99 55 -19 73 -23 145 -37
25 -5 156 -13 240 -15 93 -3 264 14 440 41 165 26 182 29 200 34 8 2 40 7 70
10 171 18 301 87 355 188 7 12 22 40 33 62 55 103 120 140 324 186 135 30 187
47 291 93 84 38 133 47 149 29 29 -35 2 -243 -43 -343 -12 -25 -49 -92 -84
-150 -153 -257 -184 -328 -162 -377 9 -20 41 -40 62 -38 22 2 91 28 105 40 8
6 22 15 30 18 8 4 62 38 120 77 166 110 253 147 425 179 116 21 176 29 360 45
39 4 88 9 110 11 22 3 58 7 80 9 38 4 101 11 190 21 38 5 135 9 510 20 203 6
235 10 345 42 186 53 287 150 394 378 26 55 51 109 56 120 39 94 96 196 123
222 74 70 246 143 334 143 55 0 75 -10 138 -70 28 -26 104 -86 170 -133 66
-48 125 -90 131 -95 28 -25 179 -105 228 -122 51 -18 81 -22 252 -34 60 -4
115 -23 144 -48 65 -57 125 -214 115 -301 -6 -52 -45 -95 -110 -121 -33 -13
-76 -26 -95 -30 -19 -3 -46 -8 -60 -11 -66 -13 -125 -7 -218 25 -65 22 -134
40 -174 47 -40 6 -94 -23 -112 -62 -48 -101 28 -408 148 -594 32 -49 106 -126
181 -186 28 -22 52 -42 55 -46 3 -3 28 -21 55 -40 28 -18 52 -37 55 -40 6 -8
310 -209 315 -209 2 0 41 -23 87 -52 147 -92 418 -233 518 -270 30 -11 60 -24
65 -29 6 -4 37 -17 70 -29 33 -12 69 -25 80 -30 114 -51 416 -128 575 -147 76
-8 311 -8 355 1 99 21 143 33 260 73 158 54 258 80 339 90 70 9 666 9 801 0
50 -3 142 -9 205 -12 63 -4 138 -8 165 -10 28 -2 60 -2 72 1 25 7 36 37 19 57
-14 18 -164 117 -177 117 -5 0 -9 5 -9 10 0 6 -4 10 -9 10 -5 0 -44 22 -85 50
-42 27 -80 50 -86 50 -5 0 -10 4 -10 8 0 5 -15 16 -32 25 -18 9 -51 28 -73 42
-22 14 -47 28 -55 32 -8 4 -37 21 -65 38 -86 53 -202 107 -257 119 -53 12
-147 13 -286 2 -40 -3 -83 -1 -97 4 -40 15 -59 65 -59 155 0 70 3 85 27 123
47 73 154 134 257 146 36 4 139 -9 215 -28 115 -28 166 -34 263 -31 169 6 247
27 270 72 23 44 -7 83 -118 151 -41 26 -76 50 -78 54 -2 5 -8 8 -13 8 -18 0
-153 106 -200 156 -64 69 -152 214 -259 427 -105 208 -128 246 -224 376 -86
117 -103 159 -81 204 34 69 172 137 278 137 61 0 90 -19 202 -140 255 -273
308 -310 373 -264 124 86 66 580 -101 859 -36 60 -138 213 -154 230 -10 11
-30 36 -45 56 -62 83 -215 237 -338 340 -154 129 -333 225 -680 365 -74 30
-144 59 -155 64 -26 11 -302 114 -467 174 -297 107 -379 136 -415 150 -21 8
-76 29 -123 46 -154 58 -258 99 -325 130 -36 16 -67 30 -70 30 -2 0 -32 13
-67 29 -35 16 -91 41 -125 55 -35 14 -89 38 -120 52 -68 31 -85 38 -223 96
-162 68 -209 86 -292 108 -73 20 -80 20 -112 5 -19 -9 -36 -25 -39 -35 -25
-95 137 -383 318 -566 73 -74 137 -115 334 -216 97 -49 191 -103 210 -121 34
-33 90 -140 110 -212 15 -55 14 -112 -2 -118 -31 -12 -116 11 -316 85 -141 52
-197 77 -246 112 -16 11 -37 26 -46 31 -9 6 -43 28 -75 51 -128 88 -219 113
-303 82 -70 -27 -118 -80 -181 -200 -73 -141 -114 -194 -227 -288 -54 -45
-107 -89 -118 -99 -45 -37 -213 -145 -279 -178 -62 -31 -76 -35 -126 -30 -73
7 -141 39 -191 89 -39 39 -41 45 -35 85 5 41 54 146 139 301 89 162 117 249
96 296 -14 31 -56 49 -97 41 -35 -6 -130 -54 -214 -108 -31 -20 -62 -37 -68
-37 -5 0 -10 -3 -10 -7 0 -5 -10 -13 -23 -19 -12 -6 -49 -25 -82 -42 -118 -60
-183 -79 -330 -97 -27 -4 -61 -8 -74 -10 -27 -5 -124 -14 -291 -30 -74 -6
-191 -15 -425 -30 -38 -3 -117 -8 -175 -12 -135 -9 -197 -8 -350 1 -160 11
-217 9 -275 -8 -109 -33 -154 -103 -179 -279 -11 -76 -23 -123 -42 -157 -63
-116 -408 -408 -504 -427 -42 -8 -112 38 -156 103 -27 40 -40 92 -27 109 14
18 86 70 133 94 67 36 116 76 203 163 149 152 188 218 151 259 -24 27 -55 24
-164 -15 -52 -19 -146 -52 -208 -74 -61 -22 -112 -38 -112 -36 0 2 -11 -1 -25
-6 -102 -39 -264 -44 -435 -15 -224 38 -249 41 -435 50 -60 3 -144 8 -185 10
-335 18 -785 24 -885 11 -100 -12 -129 -16 -155 -22 -14 -3 -36 -8 -50 -11
-76 -14 -217 -87 -265 -137 -40 -42 -95 -113 -95 -124 0 -6 -3 -12 -8 -14 -4
-1 -23 -28 -42 -58 -53 -86 -99 -140 -115 -134 -22 9 -54 88 -87 213 -28 108
-30 123 -23 221 9 130 8 158 -8 190 -17 34 -27 44 -67 65 -29 15 -49 17 -125
11 -49 -4 -103 -9 -120 -12 -86 -14 -257 -16 -302 -4 -106 28 -150 63 -300
240 -81 95 -81 94 -143 136 -68 46 -163 80 -280 103 -30 6 -66 14 -80 16 -39
8 -190 33 -235 40 -22 3 -51 7 -65 10 -14 2 -50 7 -80 10 -30 3 -66 7 -80 9
-14 3 -56 7 -95 11 -38 4 -101 10 -139 14 -114 12 -234 5 -321 -19 -104 -29
-148 -29 -182 -3 -16 11 -28 24 -28 29 0 5 -3 14 -6 19 -15 25 -80 252 -104
365 -4 16 -23 94 -30 120 -2 8 -10 42 -18 75 -56 223 -83 258 -245 311 -45 15
-82 31 -82 37 0 10 27 33 101 84 45 30 228 143 234 143 1 0 54 29 118 64 162
90 407 203 407 189 0 -3 6 -1 13 4 9 8 68 31 97 38 3 1 18 7 33 13 16 7 30 12
33 12 12 0 229 96 232 102 2 5 10 8 18 8 8 0 22 4 32 10 67 37 218 87 291 96
290 35 573 -49 761 -226 118 -112 223 -292 244 -422 3 -18 10 -48 15 -65 5
-18 8 -33 6 -33 -3 0 0 -12 6 -27 5 -14 11 -88 13 -163 5 -168 22 -218 99
-284 116 -102 445 -224 782 -290 17 -4 41 -9 55 -11 53 -11 187 -33 243 -40
15 -2 44 -6 65 -9 233 -33 525 -38 682 -12 97 16 266 61 332 89 20 8 39 13 42
9 3 -3 6 0 6 6 0 7 5 12 11 12 17 0 137 63 353 184 111 63 219 124 241 136 52
29 231 149 320 215 174 128 354 255 363 255 6 0 12 4 14 9 3 7 193 128 228
144 8 4 35 19 60 33 149 85 708 360 1010 496 149 67 437 207 455 221 42 31
257 163 313 192 82 40 195 66 292 67 89 1 111 -2 238 -28 157 -32 568 -163
687 -219 109 -51 181 -23 186 72 5 85 -21 448 -42 573 -18 107 -31 145 -119
335 -37 81 -77 184 -84 217 -3 13 -8 34 -11 48 -46 176 60 477 255 724 8 11
44 48 79 83 138 137 272 195 451 194 126 0 219 -18 355 -68 39 -14 80 -27 93
-30 12 -3 22 -9 22 -14 0 -5 7 -9 15 -9 28 0 214 -97 277 -145 63 -47 119 -95
252 -214 39 -35 303 -297 586 -581 293 -294 523 -517 532 -517 45 1 60 53 38
127 -8 25 -14 47 -15 50 0 3 -8 28 -18 55 -17 52 -57 238 -62 290 -1 17 -5 41
-8 55 -6 25 -14 74 -23 140 -2 19 -6 46 -9 60 -3 14 -7 48 -10 75 -3 28 -8 61
-10 75 -2 14 -6 54 -10 90 -3 36 -8 85 -10 110 -2 25 -7 81 -10 125 -2 44 -8
125 -12 180 -9 138 -9 821 0 980 11 181 15 229 22 315 12 148 14 168 30 335 3
28 7 77 10 110 3 33 8 74 10 90 2 17 7 53 10 80 18 147 27 216 31 240 2 11 7
40 10 65 3 25 7 52 9 60 3 8 7 33 11 55 3 22 14 81 24 130 20 91 30 143 35
180 2 11 6 36 9 55 12 68 25 145 31 185 52 373 155 568 292 550 46 -6 130 -39
198 -77 28 -16 61 -34 75 -41 14 -6 27 -14 30 -18 3 -4 30 -21 60 -40 30 -18
60 -37 65 -42 6 -4 55 -40 110 -80 113 -81 291 -215 311 -234 7 -7 17 -13 22
-13 6 0 12 -3 14 -7 4 -10 65 -57 131 -102 116 -79 165 -15 117 154 -20 70
-54 219 -64 285 -3 19 -8 46 -11 60 -5 23 -12 65 -21 115 -2 11 -8 43 -14 70
-12 58 -17 86 -26 135 -4 19 -9 44 -11 55 -3 11 -6 27 -7 35 -2 8 -8 40 -14
70 -12 55 -18 83 -27 130 -12 60 -16 82 -41 200 -45 216 -122 519 -174 690
-73 238 -101 333 -105 353 -2 9 -6 20 -8 25 -3 4 -17 59 -31 124 -31 138 -40
233 -39 428 2 420 74 605 291 744 147 93 353 145 482 122 92 -17 250 -108 338
-195 58 -57 124 -101 267 -177 61 -32 142 -75 180 -96 39 -21 81 -43 95 -50
14 -7 27 -15 30 -19 3 -3 43 -25 90 -48 76 -38 90 -42 134 -37 107 12 207 114
222 227 5 37 1 57 -25 113 -17 38 -31 73 -31 78 0 4 12 6 28 4 15 -3 62 -7
104 -11 43 -3 88 -8 100 -10 13 -2 46 -6 73 -10 28 -3 64 -8 80 -10 17 -3 84
-11 150 -20 66 -8 131 -17 145 -19 48 -8 115 -17 155 -22 68 -8 107 -14 129
-19 12 -2 44 -7 71 -9 28 -3 102 -12 165 -21 63 -8 129 -17 145 -20 17 -2 50
-6 75 -10 25 -3 68 -8 95 -10 28 -3 77 -8 110 -12 192 -20 396 0 574 57 232
74 259 178 78 302 -54 37 -224 138 -232 138 -2 0 -62 33 -133 74 -175 100
-210 117 -380 187 -257 105 -284 131 -189 191 110 69 354 167 719 288 58 19
257 66 318 74 19 3 46 8 60 11 29 6 128 24 167 31 16 2 39 7 53 11 35 9 41 10
75 16 96 17 351 93 470 140 58 23 374 185 407 208 18 13 47 31 64 40 31 17
280 181 300 197 6 5 35 27 65 48 30 21 56 41 59 44 3 3 23 19 45 35 22 17 42
32 45 35 3 3 44 38 92 78 80 67 201 192 237 245 8 12 18 24 21 27 14 10 89
127 114 175 42 84 39 156 -7 172 -52 17 -211 -16 -622 -132 -110 -31 -207 -58
-215 -60 -8 -1 -42 -10 -75 -19 -91 -25 -287 -71 -367 -86 -110 -21 -209 -30
-239 -23 -44 12 -12 89 91 222 40 52 80 101 89 110 9 9 41 45 71 80 30 35 65
76 78 90 13 14 40 46 60 71 20 24 44 52 52 61 47 52 133 169 215 294 43 66 81
122 84 125 7 6 50 69 145 210 39 58 74 110 78 115 26 32 88 127 88 135 0 6 3
10 8 10 4 0 12 9 17 19 6 11 39 65 75 120 98 152 99 154 110 176 5 11 16 29
22 40 59 92 210 380 202 387 -2 3 2 11 11 18 8 7 15 18 15 24 0 6 13 44 30 84
37 92 101 317 139 492 31 138 35 158 48 239 4 25 8 48 8 51 1 3 5 32 9 65 5
33 10 69 12 80 18 98 26 407 13 490 -16 93 -48 146 -104 169 -24 11 -37 10
-69 -1 -86 -29 -233 -168 -381 -357 -16 -21 -35 -44 -40 -50 -13 -13 -152
-193 -180 -232 -85 -118 -315 -414 -345 -445 -19 -20 -63 -74 -145 -180 -36
-46 -71 -91 -78 -99 -7 -8 -23 -31 -37 -50 -13 -19 -27 -37 -30 -40 -4 -3 -26
-31 -49 -62 -24 -32 -45 -58 -47 -58 -2 0 7 19 20 42 84 154 245 469 289 568
79 178 144 355 173 475 25 102 72 377 88 510 3 22 10 72 15 110 5 39 12 99 16
135 3 36 8 83 11 105 3 22 7 65 10 95 5 56 10 110 19 210 7 68 12 137 21 260
3 52 7 113 9 135 16 215 23 553 12 615 -12 73 -14 81 -36 166 -56 219 -142
351 -220 338 -30 -5 -79 -56 -118 -123 -14 -25 -29 -48 -32 -51 -3 -3 -13 -19
-22 -36 -9 -17 -39 -73 -66 -125 -48 -89 -71 -134 -243 -464 -40 -77 -80 -153
-90 -170 -10 -16 -34 -61 -55 -100 -65 -120 -154 -276 -212 -370 -65 -106
-538 -815 -588 -881 -9 -13 -48 -67 -86 -121 -37 -54 -75 -107 -83 -118 -63
-84 -93 -126 -106 -145 -15 -23 -88 -119 -169 -225 -65 -84 -177 -225 -204
-255 -12 -14 -40 -48 -62 -75 -21 -28 -42 -52 -45 -55 -3 -3 -43 -48 -89 -100
-137 -156 -470 -488 -652 -652 -209 -188 -419 -354 -619 -490 -134 -91 -361
-228 -378 -228 -6 0 -12 -3 -14 -7 -4 -11 -130 -73 -145 -73 -7 0 -13 -4 -13
-10 0 -5 -6 -10 -14 -10 -7 0 -31 -8 -52 -17 -22 -9 -43 -17 -49 -19 -5 -1
-37 -11 -70 -22 -116 -39 -381 -100 -545 -126 -48 -8 -86 -15 -146 -27 -28 -5
-62 -12 -77 -14 -15 -3 -37 -7 -49 -9 -59 -10 -201 -47 -232 -60 -19 -8 -37
-12 -40 -8 -3 3 -6 0 -6 -6 0 -7 -7 -12 -16 -12 -23 0 -100 -56 -128 -93 -42
-56 -68 -151 -67 -247 1 -110 7 -156 47 -370 10 -55 27 -416 28 -610 1 -121
-15 -201 -51 -250 -73 -99 -214 -185 -388 -236 -141 -41 -378 -39 -460 3 -92
48 -134 92 -156 165 -53 177 -31 415 45 473 17 13 76 40 131 61 55 20 132 53
170 73 39 20 103 52 144 71 84 39 161 107 187 167 14 31 18 74 20 248 1 116 5
219 7 230 18 70 48 132 110 228 20 31 37 59 37 62 0 3 7 13 14 22 8 10 64 87
125 170 61 84 115 159 120 165 6 7 40 51 76 98 83 109 257 330 270 344 6 6 32
39 58 73 26 34 53 68 60 75 6 7 30 36 52 63 22 28 47 59 57 70 9 11 44 54 78
95 34 41 74 88 88 105 15 16 58 66 95 110 38 44 78 91 90 105 12 14 54 61 92
105 39 44 75 85 81 91 5 6 30 35 55 64 24 29 49 58 55 64 5 6 66 74 133 151
68 77 149 169 180 204 31 35 64 73 74 85 35 40 132 150 152 172 11 12 45 50
75 84 30 35 60 68 65 74 6 6 66 74 134 151 68 77 138 156 155 175 17 19 69 78
116 130 123 138 144 161 158 176 6 7 12 15 12 17 0 3 19 25 43 49 23 23 76 81
117 128 41 47 81 92 90 101 8 9 30 34 49 55 19 21 53 59 75 84 23 25 68 76
101 114 33 37 69 78 80 90 27 30 155 172 180 200 93 105 164 183 183 202 12
13 22 25 22 27 0 2 19 24 43 49 23 24 69 75 102 112 33 37 71 80 85 95 29 31
98 108 190 210 36 40 76 85 90 100 14 15 48 52 75 82 28 31 88 97 135 148 46
51 93 103 105 116 70 78 157 174 202 222 29 31 76 83 105 116 29 33 79 87 111
120 31 32 57 61 57 63 0 2 15 18 33 37 26 28 133 143 246 266 13 14 74 79 135
145 61 65 131 139 154 165 260 277 613 636 712 723 70 63 200 125 292 142 15
2 31 7 35 9 5 3 37 8 73 12 36 3 76 8 90 10 14 2 70 7 125 9 113 7 267 22 305
31 3 1 21 5 40 9 92 20 245 96 333 166 135 107 232 205 297 301 8 12 24 34 36
48 11 14 51 76 88 136 38 61 76 121 85 135 61 90 173 383 281 730 101 325 187
583 223 670 5 14 11 30 13 35 2 6 24 66 49 135 25 69 68 191 95 271 63 189
118 326 179 447 49 97 138 252 150 262 3 3 26 32 51 65 24 33 49 65 55 71 5 6
30 35 55 64 25 29 50 58 55 64 6 6 35 40 65 76 30 36 64 74 75 85 11 11 43 47
70 80 28 33 57 67 65 76 8 8 33 35 54 60 22 24 58 64 80 89 23 25 73 81 111
125 39 43 86 96 105 117 19 21 46 50 60 66 37 41 171 191 200 222 14 15 54 60
90 100 36 40 76 85 90 100 14 15 63 69 110 120 47 51 99 107 115 125 61 66
190 208 206 226 9 10 61 67 116 126 55 59 112 122 127 138 15 17 66 73 115
125 48 52 115 124 147 159 32 35 80 86 106 113 26 27 66 71 89 96 23 26 90 99
149 162 59 63 122 131 140 150 18 19 81 87 140 150 59 63 122 131 140 150 36
39 233 248 351 374 42 45 91 97 109 116 18 19 94 100 170 180 76 80 162 170
192 201 510 540 1088 1124 1253 1267 28 23 60 45 71 48 48 12 140 -65 229
-192 29 -41 126 -156 150 -177 11 -10 63 -53 115 -95 52 -42 104 -85 115 -95
11 -10 32 -26 48 -35 15 -9 27 -20 27 -24 0 -4 4 -8 10 -8 9 0 39 -23 74 -55
19 -18 326 -238 421 -302 270 -180 532 -324 717 -393 46 -18 92 -35 103 -40
45 -19 434 -135 555 -165 8 -2 40 -10 70 -19 94 -26 175 -48 185 -51 6 -1 17
-4 25 -7 8 -3 42 -14 75 -23 113 -32 155 -47 255 -93 112 -52 134 -87 101
-164 -20 -47 -72 -103 -317 -338 -66 -63 -136 -137 -155 -165 -51 -71 -150
-239 -211 -355 -10 -19 -23 -42 -28 -50 -23 -35 -120 -253 -158 -355 -67 -180
-129 -431 -147 -595 -3 -30 -8 -66 -10 -80 -35 -214 -35 -661 0 -900 20 -134
30 -185 50 -270 11 -45 46 -154 69 -213 25 -66 117 -248 139 -276 12 -15 27
-39 52 -88 10 -18 21 -33 26 -33 5 0 9 -5 9 -10 0 -12 52 -94 63 -98 4 -2 7
-7 7 -12 0 -4 24 -50 53 -101 90 -161 172 -350 192 -440 2 -9 12 -47 24 -85
16 -56 72 -278 86 -344 11 -50 41 -159 68 -245 17 -55 31 -102 32 -105 1 -3 5
-14 10 -25 4 -11 12 -33 19 -50 27 -71 130 -270 178 -342 44 -67 180 -244 213
-279 5 -6 39 -44 75 -85 78 -90 380 -391 475 -474 37 -33 73 -65 79 -70 6 -6
36 -30 66 -55 30 -25 61 -50 68 -57 35 -34 212 -143 249 -153 107 -32 147 45
108 204 -15 55 -58 199 -72 236 -3 8 -7 20 -8 25 -2 6 -12 35 -23 65 -41 111
-116 371 -125 435 -3 17 -7 41 -10 55 -4 14 -9 52 -12 85 -3 33 -7 74 -9 91
-3 16 -7 64 -11 105 -3 41 -8 90 -10 109 -3 32 -11 151 -21 330 -4 81 -4 554
1 635 4 80 15 222 20 265 8 73 16 136 21 165 7 34 21 124 29 175 3 19 8 42 10
50 3 8 7 33 10 55 4 22 10 56 15 75 5 19 11 46 14 60 53 249 142 535 237 755
49 114 164 342 185 366 8 8 14 19 14 23 0 16 134 210 203 294 138 169 337 370
517 521 36 30 75 64 87 75 12 12 28 26 35 31 119 93 154 124 338 295 115 107
204 159 239 140 35 -18 42 -67 40 -316 0 -131 1 -250 4 -264 5 -28 14 -107 22
-195 3 -33 8 -73 10 -90 3 -16 7 -41 9 -55 14 -87 61 -139 109 -121 31 12 85
76 117 138 14 26 28 50 31 53 9 8 247 496 332 680 14 30 41 90 61 133 20 42
36 79 36 82 0 2 11 28 24 57 86 186 195 482 286 778 32 104 63 196 124 365 4
11 12 31 18 45 25 62 101 303 119 377 94 393 36 677 -196 960 -52 63 -223 233
-271 269 -22 16 -48 37 -59 47 -11 10 -73 58 -138 105 -65 48 -157 116 -205
151 -130 97 -195 133 -326 185 -66 26 -139 58 -162 72 -63 37 -110 96 -125
157 -20 78 -16 420 6 532 2 11 7 47 10 80 4 33 10 78 15 100 4 22 11 63 15 90
5 42 16 99 50 254 28 126 101 338 140 405 75 128 219 181 395 146 156 -30 409
-140 498 -215 163 -138 287 -340 328 -533 41 -197 0 -381 -129 -572 -32 -48
-134 -152 -182 -185 -16 -11 -61 -46 -101 -77 -40 -31 -113 -82 -163 -113
-165 -102 -195 -152 -121 -205 27 -19 94 -47 133 -55 10 -2 26 -6 35 -9 9 -3
31 -8 47 -11 17 -2 41 -7 55 -11 14 -3 75 -7 135 -9 192 -7 267 22 450 175 65
55 266 262 366 378 62 73 123 155 147 200 62 117 94 156 148 181 42 20 195 60
289 75 163 27 328 46 388 45 78 -2 112 11 124 46 4 11 8 110 8 220 1 223 6
247 73 345 20 30 40 57 43 60 3 3 30 34 60 70 29 36 56 67 59 70 3 3 21 25 40
50 19 25 37 47 40 50 3 3 13 16 22 30 10 14 30 43 46 65 59 84 119 217 139
310 9 41 9 218 0 280 -4 28 -9 64 -11 80 -47 329 -15 418 261 733 40 45 73 80
73 76 0 -3 12 9 28 27 29 36 207 210 311 305 122 113 292 287 318 325 22 34
24 43 15 65 -7 13 -22 28 -34 33 -36 13 -385 -2 -553 -24 -22 -3 -71 -7 -110
-10 -38 -3 -81 -8 -95 -10 -14 -3 -47 -8 -75 -10 -27 -3 -66 -7 -85 -10 -71
-11 -166 -26 -190 -31 -14 -2 -41 -7 -60 -10 -44 -8 -51 -10 -70 -17 -8 -3
-55 -18 -105 -32 -207 -61 -360 -139 -479 -246 -87 -79 -143 -178 -216 -384
-18 -49 -36 -98 -41 -107 -5 -10 -9 -23 -9 -28 0 -6 -18 -56 -41 -110 -39 -94
-68 -140 -90 -140 -29 0 -89 197 -164 540 -60 278 -225 627 -453 960 -60 87
-170 238 -182 250 -3 3 -23 30 -45 60 -22 30 -44 60 -50 66 -6 6 -35 41 -65
78 -29 36 -57 66 -62 66 -4 0 -8 4 -8 10 0 12 -56 73 -247 269 -324 333 -561
570 -613 612 -30 24 -60 48 -66 54 -10 10 -110 95 -123 105 -3 3 -28 29 -54
59 -144 163 -93 264 223 438 110 61 146 82 199 117 30 19 107 61 170 92 64 31
133 65 153 75 21 11 40 20 43 20 5 -1 75 30 160 70 42 19 101 52 187 104 9 5
47 27 84 49 101 58 175 138 201 215 20 63 23 167 7 261 -3 19 -7 47 -9 62 -2
15 -9 53 -14 85 -22 122 -15 207 24 283 38 75 60 92 160 128 95 35 291 38 380
7 170 -59 356 -280 401 -477 33 -139 39 -206 39 -408 -1 -303 -13 -404 -65
-535 -37 -94 -39 -137 -6 -154 36 -20 79 -1 172 73 126 102 302 300 409 461
22 33 43 62 48 63 4 2 7 10 7 17 0 8 7 20 15 28 14 14 145 267 145 280 0 3 11
30 23 59 13 29 30 69 37 88 7 19 19 49 26 65 20 47 83 234 94 274 5 20 18 70
30 111 33 118 48 236 45 347 -2 57 -6 106 -8 110 -3 5 -8 24 -11 43 -18 113
-171 451 -235 520 -9 9 -69 71 -134 138 -139 142 -174 202 -163 283 11 79 95
278 284 674 85 178 504 1014 629 1255 78 150 153 296 385 750 61 118 114 221
119 230 55 105 109 227 109 249 0 15 -5 32 -12 39 -12 12 -61 15 -88 5z
m-4661 -7010 c65 -65 145 -154 178 -198 34 -44 77 -96 96 -115 64 -64 167
-242 227 -390 12 -30 26 -66 32 -80 42 -104 171 -471 234 -662 42 -128 78
-240 81 -248 4 -8 7 -19 8 -25 1 -5 9 -30 18 -55 13 -39 58 -198 74 -263 15
-62 25 -147 20 -168 -11 -44 -65 -118 -106 -145 -82 -54 -174 -26 -289 88 -39
39 -51 73 -97 273 -36 160 -81 188 -205 125 -49 -25 -292 -111 -350 -125 -8
-2 -40 -12 -70 -23 -54 -19 -146 -48 -185 -57 -11 -3 -73 -21 -138 -40 -65
-19 -129 -37 -142 -39 -14 -3 -60 -11 -102 -20 -70 -13 -126 -21 -233 -32 -67
-6 -285 -6 -335 1 -100 14 -257 82 -317 137 -113 104 -113 269 -2 494 60 121
101 162 424 419 36 29 220 213 261 261 61 72 101 123 178 224 11 14 64 86 120
160 55 74 137 184 183 244 101 133 170 226 210 286 28 42 82 90 102 90 4 0 61
-53 125 -117z m-3763 -4002 c5 -5 36 -16 69 -26 108 -30 220 -106 253 -170 14
-28 43 -115 48 -145 3 -14 9 -41 14 -60 25 -96 38 -308 25 -395 -16 -106 -33
-198 -80 -425 -32 -157 -42 -221 -50 -300 -11 -119 -18 -179 -22 -205 -12 -81
-10 -240 4 -289 39 -134 113 -194 323 -261 94 -31 141 -52 152 -69 37 -55 -67
-243 -137 -247 -60 -4 -181 -5 -188 -1 -5 2 -32 6 -60 8 -29 1 -65 5 -82 8
-16 2 -50 8 -75 11 -25 4 -54 9 -65 11 -11 3 -36 7 -55 10 -19 3 -42 7 -50 10
-8 3 -28 8 -45 10 -16 3 -39 9 -50 13 -11 5 -72 23 -135 41 -391 109 -887 314
-988 408 -7 6 -17 12 -22 12 -5 0 -15 6 -22 13 -7 6 -48 39 -91 71 -80 60
-212 185 -234 221 -100 160 -83 241 83 391 150 137 211 201 289 304 27 36 54
70 60 77 5 6 28 36 50 67 22 31 43 56 47 56 4 0 8 4 8 10 0 5 9 20 19 32 10
13 65 81 121 152 164 206 244 290 380 397 90 71 245 179 257 179 3 0 22 10 42
22 20 13 38 23 41 24 3 0 12 4 20 7 77 34 129 44 146 28z m-9251 -8003 c-4
-13 -13 -36 -20 -53 -7 -16 -34 -86 -60 -155 -26 -69 -53 -138 -61 -155 -16
-39 -78 -198 -80 -205 -1 -7 -14 -42 -25 -65 -31 -70 -117 -302 -169 -457 -90
-265 -163 -411 -293 -583 -93 -121 -310 -386 -402 -489 -18 -21 -90 -103 -138
-160 -43 -50 -104 -120 -122 -140 -91 -102 -153 -173 -169 -195 -11 -14 -28
-33 -37 -41 -8 -8 -53 -58 -99 -110 -45 -52 -90 -102 -99 -111 -9 -9 -36 -40
-61 -69 -25 -29 -56 -64 -70 -79 -14 -15 -50 -56 -80 -91 -30 -34 -68 -77 -85
-95 -16 -19 -59 -66 -95 -106 -36 -39 -76 -84 -90 -99 -14 -15 -57 -63 -97
-106 -39 -43 -88 -97 -110 -120 -21 -22 -75 -81 -119 -130 -135 -147 -314
-341 -377 -408 -22 -23 -73 -78 -115 -124 -43 -46 -104 -112 -137 -147 -33
-35 -100 -107 -150 -160 -118 -127 -130 -140 -267 -286 -64 -68 -133 -142
-155 -165 -21 -23 -87 -94 -148 -159 -60 -64 -132 -141 -160 -170 -27 -29
-104 -110 -170 -180 -66 -70 -140 -149 -163 -174 -24 -25 -94 -100 -155 -165
-62 -65 -134 -142 -162 -171 -27 -28 -83 -87 -124 -131 -41 -43 -126 -134
-190 -201 -64 -68 -143 -151 -176 -186 -367 -389 -368 -389 -610 -643 -189
-198 -195 -205 -400 -419 -93 -98 -194 -203 -224 -234 -29 -31 -133 -139 -230
-240 -97 -101 -201 -209 -231 -241 -65 -68 -451 -469 -530 -550 -30 -31 -158
-164 -285 -295 -862 -890 -884 -913 -1002 -989 -116 -75 -316 -174 -548 -271
-194 -82 -221 -93 -355 -159 -214 -106 -311 -137 -346 -111 -14 10 -16 24 -11
86 3 41 12 94 20 119 30 92 89 283 92 298 2 10 11 40 20 67 10 28 18 55 19 60
3 17 58 179 65 190 3 6 6 12 6 15 1 15 76 191 128 300 90 190 210 384 286 461
9 9 34 38 56 64 42 50 110 128 135 155 8 9 53 58 100 110 47 52 108 120 136
150 29 30 66 71 84 90 18 19 80 86 139 149 58 62 121 130 140 150 30 32 126
134 391 414 189 200 409 431 525 552 50 51 123 129 164 172 40 43 141 149 225
237 83 87 171 180 196 206 25 27 106 112 180 190 74 78 149 157 165 174 158
168 319 339 358 380 27 28 86 92 132 141 45 50 98 106 116 126 19 20 75 80
124 133 50 54 106 115 125 135 19 20 82 88 140 151 58 62 119 128 135 145 17
18 59 65 95 105 36 40 79 87 95 105 33 35 196 212 235 255 14 15 63 69 110
120 47 51 94 103 105 115 11 13 54 60 95 105 41 45 89 97 105 115 17 18 71 77
120 131 101 110 106 116 190 209 33 37 78 86 100 110 22 23 76 82 120 130 44
48 91 100 105 115 47 51 185 202 205 225 11 12 54 59 95 105 41 46 98 107 125
136 28 29 63 68 79 86 15 18 54 60 85 94 139 150 231 251 251 274 12 14 58 65
103 113 88 94 98 106 222 241 44 48 98 107 120 130 36 38 197 212 268 290 16
17 77 83 137 146 59 63 135 144 168 180 193 208 461 479 532 539 30 25 80 62
110 81 30 19 57 37 60 40 10 12 216 108 375 175 161 69 295 137 415 213 36 23
90 56 120 74 30 18 60 36 65 40 6 5 120 82 255 172 135 89 265 177 290 194 54
38 53 38 45 10z m11520 -2468 c3 -6 -1 -7 -9 -4 -18 7 -21 14 -7 14 6 0 13 -4
16 -10z m30 1 c3 -5 2 -12 -3 -15 -5 -3 -9 1 -9 9 0 17 3 19 12 6z m12 -33 c1
-7 8 -38 17 -69 8 -31 16 -74 18 -95 3 -37 2 -39 -24 -37 -26 2 -115 54 -130
77 -10 15 0 25 20 19 10 -2 24 3 31 11 8 9 10 16 7 16 -4 0 5 11 20 25 25 23
25 29 -1 26 -5 -1 1 8 14 19 27 24 27 24 28 8z m-47 -48 c0 -5 -6 -9 -12 -7
-7 1 -12 -6 -12 -15 1 -10 -2 -15 -7 -12 -5 3 -9 0 -9 -6 0 -6 -4 -9 -10 -5
-5 3 0 17 12 30 23 26 38 32 38 15z m-75 -20 c3 -6 -1 -7 -9 -4 -18 7 -21 14
-7 14 6 0 13 -4 16 -10z m-25505 -8175 c241 -37 395 -145 504 -355 24 -47 45
-89 46 -95 3 -12 8 -30 20 -65 23 -66 44 -159 58 -250 9 -60 8 -344 -2 -395
-24 -127 -80 -279 -153 -415 -45 -82 -92 -160 -104 -170 -3 -3 -21 -27 -39
-55 -45 -66 -85 -111 -201 -227 -130 -128 -197 -174 -420 -287 -111 -56 -432
-196 -474 -207 -5 -1 -62 -22 -125 -47 -63 -24 -179 -68 -258 -97 -149 -55
-185 -80 -175 -121 8 -29 47 -55 238 -159 241 -131 296 -169 460 -319 97 -88
123 -165 94 -274 -22 -83 -129 -261 -209 -347 -23 -25 -95 -101 -159 -169 -64
-68 -131 -140 -150 -160 -38 -40 -241 -258 -341 -365 -36 -38 -81 -86 -100
-106 -19 -20 -82 -88 -140 -150 -172 -186 -223 -241 -259 -279 -18 -20 -72
-78 -120 -130 -47 -52 -106 -115 -129 -140 -24 -25 -74 -80 -112 -121 -37 -41
-79 -87 -92 -101 -12 -14 -61 -68 -108 -119 -120 -133 -182 -201 -205 -225
-11 -12 -51 -57 -90 -100 -38 -44 -89 -99 -112 -124 -67 -75 -83 -94 -83 -103
0 -4 -7 -8 -15 -8 -8 0 -15 -3 -15 -7 0 -5 -15 -24 -33 -44 -17 -20 -63 -72
-102 -115 -38 -43 -92 -103 -119 -134 -27 -30 -56 -62 -65 -71 -9 -8 -36 -40
-61 -69 -25 -29 -52 -61 -61 -69 -9 -9 -40 -43 -69 -76 -29 -33 -85 -96 -124
-139 -39 -44 -81 -91 -94 -105 -12 -14 -44 -51 -72 -81 -72 -80 -93 -105 -177
-205 -42 -49 -80 -91 -85 -93 -4 -2 -8 -8 -8 -12 0 -5 -35 -55 -77 -111 -43
-56 -85 -111 -93 -122 -43 -59 -147 -147 -199 -167 -44 -18 -197 -15 -230 4
-13 8 -118 19 -172 19 -108 -1 -171 -57 -233 -206 -37 -89 -61 -122 -98 -138
-60 -25 -311 16 -588 96 -69 19 -132 38 -140 42 -8 3 -20 7 -25 8 -36 8 -178
71 -220 98 -215 135 -325 298 -369 545 -50 277 64 537 353 806 24 23 53 50 65
61 12 11 37 32 56 46 19 15 44 35 55 46 71 65 315 206 690 397 72 36 137 70
145 76 8 5 44 26 80 46 113 64 284 182 300 206 32 51 18 85 -72 179 -171 177
-200 233 -206 396 -4 90 -1 117 11 136 10 16 15 42 13 76 -2 28 1 77 6 109 4
31 11 73 14 92 3 19 7 53 10 75 11 81 55 306 84 436 35 155 31 139 70 305 17
71 33 140 36 154 17 77 58 218 69 240 8 14 29 39 47 57 18 17 44 53 58 80 70
138 292 527 310 543 3 3 28 39 55 80 90 135 197 258 307 351 13 11 41 37 63
58 63 58 192 161 203 161 6 0 12 4 14 9 6 16 187 121 218 127 3 0 39 11 80 24
61 20 97 24 190 25 128 0 178 -13 320 -84 107 -54 287 -160 335 -199 6 -4 46
-32 90 -62 44 -30 85 -59 90 -63 40 -32 167 -118 197 -134 49 -26 84 -19 110
21 17 28 19 45 15 171 -4 128 -9 177 -22 213 -5 13 -21 106 -32 187 -22 151 8
310 131 711 71 231 137 399 204 519 87 156 151 232 186 219 26 -10 115 -210
177 -396 11 -35 24 -72 29 -83 4 -11 20 -50 35 -88 21 -53 33 -69 53 -74 58
-14 82 32 190 367 71 222 116 323 190 425 43 59 129 146 192 195 25 19 47 38
48 42 2 5 9 8 16 8 7 0 21 8 32 18 23 20 173 95 228 112 80 26 231 32 346 15z
m3460 -3520 c89 -8 113 -12 205 -31 132 -26 282 -89 381 -160 117 -84 257
-248 330 -389 87 -166 114 -358 69 -475 -23 -57 -88 -155 -130 -195 -73 -68
-126 -115 -201 -176 -44 -35 -85 -72 -92 -81 -7 -10 -19 -18 -26 -18 -7 0 -21
-9 -31 -20 -10 -11 -24 -20 -32 -20 -7 0 -13 -4 -13 -8 0 -6 -100 -65 -261
-151 -109 -59 -190 -114 -203 -139 -13 -25 -12 -30 3 -50 20 -27 33 -29 322
-36 203 -6 352 -25 376 -48 30 -30 -24 -122 -137 -236 -75 -74 -84 -82 -180
-154 -55 -41 -206 -118 -232 -118 -8 0 -18 -4 -23 -9 -14 -13 -299 -101 -515
-160 -157 -42 -216 -58 -285 -77 -19 -5 -320 -74 -345 -79 -14 -3 -34 -7 -45
-9 -23 -4 -222 -42 -275 -51 -73 -14 -152 -13 -185 1 -47 19 -71 18 -95 -6
-16 -16 -18 -25 -10 -46 6 -14 16 -31 23 -38 6 -8 32 -37 56 -66 25 -29 50
-58 56 -64 6 -6 41 -49 79 -96 37 -47 91 -110 120 -140 46 -49 145 -163 171
-198 6 -7 15 -18 20 -25 6 -7 27 -39 47 -72 140 -230 103 -494 -117 -831 -30
-47 -55 -89 -55 -94 0 -6 -3 -10 -7 -10 -5 0 -19 -17 -33 -38 -14 -20 -29 -42
-35 -48 -5 -7 -26 -31 -45 -55 -30 -39 -223 -234 -290 -294 -45 -41 -193 -149
-285 -209 -49 -33 -102 -67 -116 -77 -25 -17 -173 -93 -239 -122 -34 -16 -192
-75 -208 -78 -4 -1 -11 -3 -17 -5 -35 -12 -249 -74 -267 -78 -33 -7 -232 -63
-308 -87 -174 -55 -276 -97 -445 -182 -379 -192 -453 -227 -513 -246 -66 -21
-124 -27 -169 -17 -117 26 -357 253 -409 387 -26 70 -45 86 -83 74 -22 -7 -26
-27 -46 -255 -3 -36 -8 -81 -10 -100 -2 -19 -7 -60 -10 -90 -14 -129 -43 -310
-65 -406 -24 -104 -61 -194 -124 -309 -93 -170 -202 -294 -396 -455 -41 -34
-86 -72 -100 -84 -84 -70 -202 -137 -300 -170 -173 -58 -340 -53 -564 15 -144
44 -260 102 -361 181 -173 133 -265 290 -326 554 -27 121 -36 461 -15 614 29
209 48 230 255 276 118 26 157 47 184 99 23 45 13 97 -37 204 -59 125 -60 134
-39 178 17 36 207 234 343 357 210 190 307 283 500 476 179 179 427 435 616
636 22 23 100 105 174 183 141 148 188 198 357 378 129 138 150 160 253 272
47 51 101 110 120 131 78 84 200 218 236 259 22 24 53 59 69 76 17 18 53 59
80 91 28 31 55 62 61 68 5 6 32 36 59 66 145 165 171 195 185 210 8 8 39 45
69 80 30 36 60 70 65 75 6 6 42 46 81 90 38 44 76 87 85 96 8 9 33 38 55 64
22 27 45 53 50 59 6 6 39 45 74 86 36 41 70 81 77 89 17 18 42 21 241 26 191
5 257 -7 376 -66 73 -36 182 -122 230 -181 40 -50 157 -240 157 -257 0 -6 5
-11 10 -11 6 0 10 -4 10 -9 0 -16 79 -147 99 -165 11 -10 31 -16 48 -14 33 4
50 33 58 104 11 102 17 133 51 264 39 149 66 245 96 335 11 33 21 65 22 70 1
6 4 15 7 20 5 8 29 74 35 95 15 58 247 513 339 666 157 261 311 446 435 520
121 73 256 125 365 141 17 2 36 6 43 8 7 3 50 8 95 11 45 4 83 8 85 9 4 4 173
-3 242 -10z m-3229 -1642 c13 -16 12 -17 -3 -4 -17 13 -22 21 -14 21 2 0 10
-8 17 -17z m-2081 -37 c0 -3 -4 -8 -10 -11 -5 -3 -10 -1 -10 4 0 6 5 11 10 11
6 0 10 -2 10 -4z m1636 -108 l29 -33 -32 29 c-18 17 -33 31 -33 33 0 8 8 1 36
-29z m-236 -253 c13 -14 21 -25 18 -25 -2 0 -15 11 -28 25 -13 14 -21 25 -18
25 2 0 15 -11 28 -25z m236 -122 c-7 -7 -26 7 -26 19 0 6 6 6 15 -2 9 -7 13
-15 11 -17z m-516 -168 c13 -14 21 -25 18 -25 -2 0 -15 11 -28 25 -13 14 -21
25 -18 25 2 0 15 -11 28 -25z m250 -126 c0 -4 -7 -6 -15 -3 -8 4 -15 10 -15
15 0 4 7 6 15 3 8 -4 15 -10 15 -15z m-495 -189 c10 -11 16 -20 13 -20 -3 0
-13 9 -23 20 -10 11 -16 20 -13 20 3 0 13 -9 23 -20z m235 -104 c0 -3 -4 -8
-10 -11 -5 -3 -10 -1 -10 4 0 6 5 11 10 11 6 0 10 -2 10 -4z m-560 -241 c11
-13 10 -14 -4 -9 -9 3 -16 10 -16 15 0 13 6 11 20 -6z m239 -111 c14 -12 -19
-1 -35 12 -18 14 -18 14 6 3 14 -6 27 -13 29 -15z m-539 -149 c13 -14 21 -25
18 -25 -2 0 -15 11 -28 25 -13 14 -21 25 -18 25 2 0 15 -11 28 -25z m3886
-102 c-7 -7 -26 7 -26 19 0 6 6 6 15 -2 9 -7 13 -15 11 -17z m-3632 -22 c14
-15 15 -21 4 -27 -7 -4 -10 -3 -5 1 4 5 -5 17 -20 27 -18 12 -22 18 -12 18 9
0 24 -9 33 -19z m-229 -229 c-3 -3 -11 0 -18 7 -9 10 -8 11 6 5 10 -3 15 -9
12 -12z m30 -22 c-3 -5 -11 -10 -16 -10 -6 0 -7 5 -4 10 3 6 11 10 16 10 6 0
7 -4 4 -10z m-485 -115 c13 -14 21 -25 18 -25 -2 0 -15 11 -28 25 -13 14 -21
25 -18 25 2 0 15 -11 28 -25z m250 -127 c0 -5 -11 -1 -25 8 -14 9 -25 18 -25
20 0 2 11 -2 25 -8 14 -6 25 -15 25 -20z m-485 -128 c10 -11 16 -20 13 -20 -3
0 -13 9 -23 20 -10 11 -16 20 -13 20 3 0 13 -9 23 -20z m245 -122 c0 -5 -11
-1 -25 8 -14 9 -25 18 -25 20 0 2 11 -2 25 -8 14 -6 25 -15 25 -20z m-525
-168 c10 -11 16 -20 13 -20 -3 0 -13 9 -23 20 -10 11 -16 20 -13 20 3 0 13 -9
23 -20z m240 -110 c13 -6 15 -9 5 -9 -8 0 -22 4 -30 9 -18 12 -2 12 25 0z
m-471 -219 c-3 -3 -15 6 -27 18 l-22 24 27 -19 c14 -10 24 -21 22 -23z m-354
-316 c13 -14 21 -25 18 -25 -2 0 -15 11 -28 25 -13 14 -21 25 -18 25 2 0 15
-11 28 -25z m-285 -275 c16 -17 16 -20 3 -15 -9 4 -19 13 -22 21 -7 19 -2 18
19 -6z m6272 -1362 c-3 -8 -6 -5 -6 6 -1 11 2 17 5 13 3 -3 4 -12 1 -19z
m2911 -273 c-3 -3 -9 2 -12 12 -6 14 -5 15 5 6 7 -7 10 -15 7 -18z m-13058
-2083 c44 -21 153 -84 168 -97 10 -9 11 -62 2 -95 -11 -40 -105 -179 -143
-211 -79 -68 -128 -76 -210 -35 -74 36 -110 76 -110 123 -1 101 58 249 125
316 33 33 41 36 75 31 21 -3 63 -18 93 -32z m2055 -1377 c291 -63 570 -176
642 -260 41 -47 86 -133 103 -195 19 -70 15 -177 -9 -244 -44 -126 -130 -200
-220 -190 -46 6 -227 73 -268 100 -13 8 -35 16 -50 18 -40 5 -153 52 -299 122
-58 29 -244 142 -279 171 -5 4 -23 17 -40 27 -16 11 -35 24 -41 30 -6 6 -28
25 -48 41 -54 43 -96 108 -96 146 0 62 111 167 237 222 113 50 182 52 368 12z
m6840 -596 c28 -7 69 -20 93 -30 23 -10 44 -17 47 -16 10 5 75 -69 75 -86 0
-50 -65 -138 -105 -143 -33 -3 -44 -13 -50 -43 -6 -34 -32 -70 -83 -118 -41
-37 -56 -44 -156 -67 -61 -14 -124 -28 -141 -30 -16 -3 -43 -9 -60 -12 -16 -4
-109 -8 -206 -10 -315 -6 -371 32 -313 208 22 67 84 158 135 200 49 40 127 78
189 93 3 1 30 9 61 19 31 9 66 19 78 21 13 2 30 6 39 9 20 6 86 16 162 25 59
7 155 -1 235 -20z m-3160 -93 c73 -11 142 -33 179 -55 78 -48 166 -230 165
-341 0 -63 -82 -129 -167 -136 -24 -2 -49 -7 -55 -12 -19 -14 -123 -49 -267
-89 -127 -35 -143 -37 -275 -37 -287 1 -423 48 -527 181 -34 44 -66 155 -64
223 2 90 27 129 105 164 62 28 179 60 253 71 24 3 55 8 69 10 47 8 93 13 179
20 47 4 86 8 88 10 6 5 272 -3 317 -9z"/>
<path d="M38467 26139 c7 -7 15 -10 18 -7 3 3 -2 9 -12 12 -14 6 -15 5 -6 -5z"/>
</g>
</svg>
